<svg width="232" height="46" viewBox="0 0 232 46" fill="none" xmlns="http://www.w3.org/2000/svg">
<path d="M158.75 45.049C155.843 45.049 154.389 44.7223 154.389 44.069L153.36 24.42L147.382 44.314C147.251 44.706 146.141 44.902 144.05 44.902C141.959 44.902 140.881 44.7223 140.816 44.363L134.642 24.224L133.956 43.775C133.923 44.265 133.303 44.608 132.094 44.804C130.885 44.9673 129.873 45.049 129.056 45.049C128.272 45.049 127.504 45 126.753 44.902C125.185 44.6733 124.417 44.265 124.45 43.677L125.577 11.827C125.577 11.043 127.57 10.651 131.555 10.651C132.731 10.651 134.168 10.749 135.867 10.945C137.566 11.1083 138.513 11.4513 138.709 11.974L144.197 27.409L148.999 11.925C149.293 11.0757 151.547 10.651 155.761 10.651C156.97 10.651 158.407 10.749 160.073 10.945C161.772 11.1083 162.621 11.4187 162.621 11.876L164.042 44.02C164.042 44.3793 163.405 44.6407 162.131 44.804C160.857 44.9673 159.73 45.049 158.75 45.049Z" fill="#FED766"/>
<path d="M191.885 45.588C189.043 45.588 187.508 45.1307 187.279 44.216L185.711 37.405H177.92L176.45 43.971C176.254 44.9837 174.686 45.49 171.746 45.49C170.178 45.49 169.018 45.392 168.267 45.196C167.516 45.0327 167.14 44.902 167.14 44.804L175.862 11.141C175.862 10.8797 178.1 10.749 182.575 10.749C187.05 10.749 189.288 10.8797 189.288 11.141L197.716 44.853C197.716 45.0817 196.965 45.2613 195.462 45.392C193.959 45.5227 192.767 45.588 191.885 45.588ZM179.145 31.182H184.29L182.085 21.039H181.791L179.145 31.182ZM175.519 8.10299C174.898 7.93966 174.31 7.38433 173.755 6.43699C173.232 5.48966 172.971 4.86899 172.971 4.57499C172.971 4.28099 173.02 4.08499 173.118 3.98699C175.176 1.92899 177.299 0.899992 179.488 0.899992C180.501 0.899992 181.644 1.21033 182.918 1.83099C184.192 2.41899 185.172 2.71299 185.858 2.71299C187.067 2.68033 188.194 2.04332 189.239 0.80199C189.304 0.769324 189.386 0.752991 189.484 0.752991C189.876 0.752991 190.415 1.21032 191.101 2.12499C191.787 3.03966 192.13 3.66032 192.13 3.98699C192.13 4.93433 191.346 5.93066 189.778 6.97599C188.765 7.69466 187.785 8.05399 186.838 8.05399C186.707 8.05399 186.593 8.05399 186.495 8.05399C185.254 8.05399 183.882 7.72733 182.379 7.07399C180.876 6.42066 179.945 6.09399 179.586 6.09399C179.259 6.09399 178.982 6.12666 178.753 6.19199C178.524 6.25733 178.312 6.32266 178.116 6.38799C177.953 6.42066 177.74 6.51866 177.479 6.68199C177.25 6.84533 177.071 6.97599 176.94 7.07399C176.809 7.13933 176.581 7.30266 176.254 7.56399C175.927 7.82532 175.682 8.00499 175.519 8.10299Z" fill="#FED766"/>
<path d="M215.566 45.49C210.992 45.49 207.252 43.9873 204.345 40.982C201.47 37.9767 200.033 33.5993 200.033 27.85C200.033 22.068 201.486 17.6907 204.394 14.718C207.334 11.7453 211.107 10.259 215.713 10.259C220.351 10.259 224.092 11.729 226.934 14.669C229.776 17.5763 231.197 22.0027 231.197 27.948C231.197 33.8607 229.743 38.2707 226.836 41.178C223.928 44.0527 220.172 45.49 215.566 45.49ZM215.615 19.667C214.047 19.667 212.724 20.3857 211.646 21.823C210.6 23.2603 210.078 25.2857 210.078 27.899C210.078 30.4797 210.584 32.4723 211.597 33.877C212.609 35.249 213.932 35.935 215.566 35.935C217.232 35.935 218.571 35.2327 219.584 33.828C220.629 32.4233 221.152 30.4143 221.152 27.801C221.152 25.1877 220.613 23.1787 219.535 21.774C218.489 20.3693 217.183 19.667 215.615 19.667Z" fill="#FED766"/>
<path d="M24.509 19.569C24.509 22.9663 23.039 25.547 20.099 27.311C21.6997 27.899 23.039 28.9117 24.117 30.349C25.195 31.7863 25.734 33.828 25.734 36.474C25.734 39.0873 24.754 41.1617 22.794 42.697C20.8667 44.2323 18.09 45 14.464 45H2.90001C2.34468 45 1.88735 44.8203 1.52801 44.461C1.16868 44.069 0.989014 43.5627 0.989014 42.942V11.582C0.989014 11.2227 1.03801 10.994 1.13601 10.896C1.26668 10.7653 1.51168 10.7 1.87101 10.7H13.043C20.687 10.7 24.509 13.6563 24.509 19.569ZM10.397 18.638V25.057H10.642C13.778 25.057 15.346 24.0117 15.346 21.921C15.346 20.7777 15.0357 19.9447 14.415 19.422C13.827 18.8993 12.8307 18.638 11.426 18.638H10.397ZM10.397 30.839V37.209H11.279C12.6837 37.209 13.7127 36.9477 14.366 36.425C15.0193 35.9023 15.346 35.0693 15.346 33.926C15.346 32.7827 15.0357 31.9823 14.415 31.525C13.827 31.0677 12.8307 30.839 11.426 30.839H10.397Z" fill="white"/>
<path d="M29.0538 20.794C29.0538 20.4347 30.4584 20.255 33.2678 20.255C36.0771 20.255 37.4818 20.4347 37.4818 20.794V35.102C37.4818 36.7353 38.0044 37.552 39.0498 37.552C39.8338 37.552 40.7158 37.209 41.6958 36.523V20.794C41.6958 20.4673 43.0841 20.304 45.8608 20.304C48.6374 20.304 50.0258 20.4673 50.0258 20.794V36.866H51.2998C52.4104 36.866 52.9658 37.9277 52.9658 40.051C52.9658 41.129 52.7371 42.2233 52.2798 43.334C51.6264 44.7713 50.7444 45.49 49.6338 45.49C47.4451 45.49 45.8281 44.5917 44.7828 42.795L44.7338 42.844C42.7411 44.608 40.6014 45.49 38.3148 45.49C35.1461 45.49 32.8104 44.706 31.3078 43.138C29.8051 41.5373 29.0538 38.9077 29.0538 35.249V20.794Z" fill="white"/>
<path d="M56.9811 36.18C59.6271 37.7807 61.7178 38.581 63.2531 38.581C64.2331 38.581 64.7231 38.238 64.7231 37.552C64.7231 37.062 63.8737 36.425 62.1751 35.641C58.0918 33.975 56.0501 31.2473 56.0501 27.458C56.0501 25.0407 56.9321 23.195 58.6961 21.921C60.4601 20.647 62.5671 20.01 65.0171 20.01C67.4997 20.01 69.5904 20.2713 71.2891 20.794C73.0204 21.3167 73.8861 22.0027 73.8861 22.852C73.8861 23.5707 73.5267 24.518 72.8081 25.694C72.1221 26.87 71.6484 27.507 71.3871 27.605C69.9824 26.821 68.4634 26.429 66.8301 26.429C65.9481 26.429 65.5071 26.7393 65.5071 27.36C65.5071 27.752 65.6704 28.095 65.9971 28.389C66.3564 28.6503 66.9934 28.9933 67.9081 29.418C68.8227 29.81 69.5741 30.1693 70.1621 30.496C70.7828 30.8227 71.4688 31.28 72.2201 31.868C73.7881 33.1093 74.5721 34.7263 74.5721 36.719C74.5721 39.3323 73.7064 41.4557 71.9751 43.089C70.2438 44.6897 67.6304 45.49 64.1351 45.49C61.8158 45.49 59.7087 45.098 57.8141 44.314C55.9194 43.53 54.9721 42.452 54.9721 41.08C54.9721 40.1653 55.1844 39.2017 55.6091 38.189C56.0664 37.1763 56.5238 36.5067 56.9811 36.18Z" fill="white"/>
<path d="M86.0477 32.848C86.0477 36.0493 87.2563 37.65 89.6737 37.65C91.2417 37.65 92.5483 37.3397 93.5937 36.719C94.0836 36.719 94.4757 37.5683 94.7697 39.267C95.0963 40.933 95.2597 42.0763 95.2597 42.697C95.2597 43.285 95.178 43.677 95.0147 43.873C93.2833 44.951 90.915 45.49 87.9097 45.49C84.9043 45.49 82.34 44.3793 80.2167 42.158C78.126 39.904 77.0807 36.8497 77.0807 32.995C77.0807 29.1077 78.1097 25.9717 80.1677 23.587C82.2583 21.2023 85.0187 20.01 88.4487 20.01C91.9113 20.01 94.3123 20.843 95.6517 22.509C95.9457 22.8683 96.0927 23.4073 96.0927 24.126C96.0927 24.812 95.962 25.6613 95.7007 26.674C95.1127 28.7647 94.345 29.9733 93.3977 30.3C93.267 30.3327 93.071 30.349 92.8097 30.349C92.581 30.349 92.287 30.153 91.9277 29.761C90.6537 28.487 89.6247 27.85 88.8407 27.85C88.0893 27.85 87.436 28.242 86.8807 29.026C86.3253 29.81 86.0477 31.084 86.0477 32.848Z" fill="white"/>
<path d="M101.866 27.213C100.952 25.5797 100.494 24.2567 100.494 23.244C100.494 22.1987 100.772 21.529 101.327 21.235C103.189 20.4183 105.737 20.01 108.971 20.01C112.238 20.01 114.541 20.7777 115.88 22.313C117.22 23.8157 117.889 26.0533 117.889 29.026V36.768H119.555C120.111 36.768 120.535 37.0947 120.829 37.748C121.156 38.4013 121.319 39.2997 121.319 40.443C121.319 41.5863 121.025 42.7133 120.437 43.824C119.882 44.9347 119.114 45.49 118.134 45.49C116.37 45.49 114.949 45.0163 113.871 44.069C113.381 43.677 113.006 43.2033 112.744 42.648C111.242 44.5427 108.906 45.49 105.737 45.49C103.353 45.49 101.344 44.6407 99.7102 42.942C98.0769 41.2433 97.2602 39.2343 97.2602 36.915C97.2602 31.5903 100.445 28.928 106.815 28.928H109.51V28.438C109.51 27.5887 109.363 27.0497 109.069 26.821C108.808 26.5597 108.171 26.429 107.158 26.429C105.917 26.429 104.153 26.6903 101.866 27.213ZM105.786 36.229C105.786 36.9477 105.982 37.503 106.374 37.895C106.766 38.2543 107.256 38.434 107.844 38.434C108.465 38.434 109.02 38.189 109.51 37.699V33.926H108.138C106.57 33.926 105.786 34.6937 105.786 36.229Z" fill="white"/>
</svg>
